<?xml version="1.0" encoding="utf-8"?>
<!-- Generator: Adobe Illustrator 17.0.0, SVG Export Plug-In . SVG Version: 6.00 Build 0)  -->
<!DOCTYPE svg PUBLIC "-//W3C//DTD SVG 1.1//EN" "http://www.w3.org/Graphics/SVG/1.1/DTD/svg11.dtd">
<svg version="1.1" id="Layer_1" xmlns="http://www.w3.org/2000/svg" xmlns:xlink="http://www.w3.org/1999/xlink" x="0px" y="0px"
	 width="283.44px" height="59.28px" viewBox="0 0 283.44 59.28" enable-background="new 0 0 283.44 59.28" xml:space="preserve">
<g>
	<g>
		<path fill="#FFFFFF" d="M283.44,25.2c0,11.36,0,22.72,0,34.08c-83.52,0-167.04,0-250.56,0c0.892-0.175,1.785-0.349,2.677-0.524
			c13.425-2.634,23.259-14.367,23.754-28.338c0.478-13.502-8.761-25.922-21.91-29.424C35.911,0.598,34.388,0.328,32.88,0
			c83.52,0,167.04,0,250.56,0c0,8.32,0,16.64,0,24.96c-2.532-2.737-5.065-5.474-7.714-8.337c0.523-0.09,0.795-0.135,1.068-0.183
			c3.395-0.603,5.232-2.654,5.204-5.813c-0.026-3.017-1.934-5.317-5.278-5.609c-3.322-0.291-6.689-0.064-10.119-0.064
			c0,6.715,0,13.443,0,20.167c0.822,0,1.562,0,2.435,0c0-2.89,0-5.705,0-8.601c0.809,0,1.489,0.059,2.155-0.014
			c1.05-0.114,1.774,0.248,2.459,1.075c1.528,1.845,3.306,3.494,4.728,5.411C279.709,24.786,281.254,25.605,283.44,25.2z
			 M198.707,8.929c0.241,0.669,0.382,1.019,0.495,1.378c1.444,4.606,2.932,9.198,4.29,13.83c0.314,1.072,0.906,1.036,1.735,1.09
			c0.914,0.06,1.325-0.228,1.59-1.128c1.355-4.593,2.781-9.164,4.183-13.742c0.556-1.815,1.116-3.628,1.695-5.508
			c-0.384-0.021-0.627-0.003-0.856-0.053c-1.388-0.301-1.92,0.361-2.261,1.655c-0.752,2.853-1.672,5.662-2.533,8.486
			c-0.619,2.033-1.253,4.061-1.975,6.397c-1.785-5.714-3.471-11.109-5.165-16.533c-0.328,0-0.574,0.04-0.802-0.007
			c-1.207-0.245-1.755,0.26-2.063,1.445c-0.571,2.199-1.302,4.356-1.981,6.527c-0.863,2.76-1.739,5.516-2.681,8.499
			c-0.188-0.547-0.299-0.843-0.391-1.145c-1.353-4.425-2.705-8.851-4.053-13.278c-0.652-2.142-0.648-2.144-2.89-2.012
			c-0.061,0.004-0.118,0.076-0.241,0.16c1.979,6.419,3.998,12.847,5.915,19.304c0.306,1.029,0.905,0.883,1.606,0.913
			c0.751,0.031,1.315,0.03,1.59-0.949c0.808-2.879,1.753-5.72,2.65-8.574C197.241,13.535,197.926,11.389,198.707,8.929z
			 M218.499,38.788c0.092-0.032,0.184-0.064,0.276-0.097c0.153,0.166,0.316,0.326,0.459,0.5c3.86,4.688,7.752,9.351,11.551,14.087
			c0.873,1.088,1.794,1.256,3.024,0.963c0-6.754,0-13.448,0-20.167c-0.835,0-1.595,0-2.46,0c0,5.327,0,10.537,0,16.009
			c-0.452-0.515-0.74-0.824-1.006-1.151c-3.788-4.644-7.613-9.258-11.327-13.961c-0.868-1.099-1.759-1.143-2.907-0.881
			c0,6.742,0,13.437,0,20.194c0.806,0,1.542,0,2.39,0C218.499,49.071,218.499,43.93,218.499,38.788z M252.241,16.626
			c0.474-0.088,0.781-0.145,1.089-0.202c3.324-0.61,5.128-2.649,5.11-5.774c-0.017-2.983-1.888-5.307-5.144-5.596
			c-3.356-0.298-6.759-0.066-10.21-0.066c0,6.693,0,13.417,0,20.151c0.792,0,1.496,0,2.341,0c0-2.875,0-5.69,0-8.617
			c0.77,0,1.41,0.067,2.031-0.014c1.188-0.155,1.989,0.307,2.751,1.215c1.796,2.14,3.813,4.104,5.52,6.309
			c1.179,1.522,2.533,1.158,4.153,1.089C257.265,22.211,254.792,19.461,252.241,16.626z M187.88,44.131
			c-0.022,5.987,4.535,10.607,10.484,10.629c5.929,0.022,10.582-4.589,10.628-10.534c0.045-5.837-4.627-10.605-10.414-10.626
			C192.502,33.578,187.902,38.106,187.88,44.131z M76.359,4.65c0,7.066,0,13.762,0,20.319c3.225,0,6.406,0.303,9.506-0.069
			c4.962-0.596,8.279-4.526,8.451-9.389c0.183-5.156-2.678-9.231-7.745-10.183C83.278,4.709,79.841,4.854,76.359,4.65z
			 M101.779,4.888c0,6.792,0,13.534,0,20.251c4.966,0,9.791,0,14.666,0c0-0.721,0-1.38,0-2.178c-4.131,0-8.188,0-12.245,0
			c0-2.358,0-4.576,0-6.938c3.849,0,7.621,0,11.368,0c0-0.771,0-1.395,0-2.178c-3.838,0-7.608,0-11.379,0c0-2.345,0-4.529,0-6.859
			c4.118,0,8.17,0,12.218,0c0-0.798,0-1.444,0-2.098C111.464,4.888,106.635,4.888,101.779,4.888z M114.677,54.201
			c-0.01-0.108,0.009-0.233-0.034-0.329c-2.864-6.412-5.747-12.815-8.584-19.239c-0.365-0.826-0.978-0.631-1.587-0.678
			c-0.654-0.051-1.069,0.1-1.376,0.799c-2.343,5.332-4.742,10.641-7.122,15.957c-0.515,1.15-1.022,2.303-1.543,3.48
			c2.346,0.461,2.46,0.405,3.272-1.495c0.235-0.55,0.52-1.084,0.706-1.65c0.234-0.714,0.647-0.958,1.412-0.944
			c2.597,0.049,5.21,0.181,7.79-0.032c2.116-0.175,3.246,0.439,3.883,2.533C112.119,54.661,112.407,54.658,114.677,54.201z
			 M173.566,25.125c-0.153-0.378-0.247-0.637-0.359-0.887c-2.759-6.154-5.547-12.295-8.252-18.473
			c-0.381-0.871-0.901-0.905-1.657-0.951c-0.815-0.05-1.196,0.252-1.519,0.982c-2.695,6.095-5.431,12.172-8.151,18.256
			c-0.152,0.339-0.27,0.694-0.418,1.08c2.541,0.178,2.542,0.178,3.447-1.954c0.187-0.441,0.412-0.87,0.549-1.326
			c0.218-0.719,0.635-0.965,1.402-0.952c2.718,0.048,5.448,0.166,8.152-0.032c1.872-0.137,2.758,0.476,3.352,2.23
			C170.883,25.382,171.019,25.336,173.566,25.125z M236.862,25.06c-0.084-0.237-0.155-0.498-0.264-0.742
			c-2.756-6.156-5.533-12.302-8.255-18.473c-0.347-0.787-0.764-1.044-1.601-1.036c-0.821,0.008-1.273,0.216-1.622,1.02
			c-1.877,4.319-3.824,8.607-5.746,12.907c-0.94,2.103-1.878,4.206-2.83,6.339c2.502,0.351,2.502,0.351,3.386-1.714
			c0.22-0.513,0.489-1.012,0.646-1.545c0.222-0.755,0.692-0.924,1.43-0.913c2.638,0.041,5.277,0.016,7.916,0.016
			c2.588,0,2.588,0,3.579,2.335c0.894,2.107,0.894,2.108,3.209,1.9C236.741,25.153,236.77,25.119,236.862,25.06z M78.767,54.29
			c0-2.559,0-5.049,0-7.703c2.616,0,5.097,0.129,7.559-0.03c3.672-0.237,5.918-2.778,5.89-6.391
			c-0.026-3.389-2.374-5.905-5.961-6.089c-3.186-0.164-6.386-0.072-9.58-0.086c-0.105,0-0.21,0.084-0.333,0.137
			c0,6.708,0,13.404,0,20.163C77.146,54.29,77.885,54.29,78.767,54.29z M117.046,33.958c0.2,0.51,0.306,0.807,0.432,1.096
			c2.665,6.106,5.354,12.201,7.972,18.327c0.357,0.835,0.818,1.01,1.618,1c0.776-0.01,1.284-0.104,1.646-0.967
			c1.788-4.268,3.67-8.496,5.518-12.739c0.949-2.177,1.898-4.355,2.861-6.562c-2.505-0.425-2.506-0.425-3.422,1.689
			c-1.063,2.453-2.121,4.907-3.188,7.358c-1.104,2.536-2.217,5.069-3.386,7.742c-0.25-0.531-0.428-0.886-0.586-1.249
			c-2.128-4.904-4.267-9.803-6.364-14.72c-0.31-0.728-0.683-1.103-1.506-0.987C118.181,34.012,117.703,33.958,117.046,33.958z
			 M134.769,4.907c0,6.786,0,13.505,0,20.226c4.705,0,9.321,0,13.96,0c0-0.723,0-1.379,0-2.148c-3.845,0-7.621,0-11.596,0
			c0-6.103,0-12.094,0-18.078C136.227,4.907,135.523,4.907,134.769,4.907z M157.694,34.031c0,6.777,0,13.483,0,20.252
			c4.669,0,9.284,0,13.947,0c0-0.736,0-1.394,0-2.203c-3.886,0-7.696,0-11.586,0c0-6.098,0-12.044,0-18.049
			C159.229,34.031,158.489,34.031,157.694,34.031z M178.154,54.275c0.866,0,1.6,0,2.34,0c0-6.805,0-13.524,0-20.21
			c-0.844,0-1.579,0-2.34,0C178.154,40.837,178.154,47.503,178.154,54.275z M147.032,54.286c0-6.796,0-13.516,0-20.225
			c-0.82,0-1.55,0-2.283,0c0,6.793,0,13.484,0,20.225C145.559,54.286,146.298,54.286,147.032,54.286z"/>
		<path fill="#FFFFFF" d="M32.88,0c1.508,0.328,3.031,0.598,4.521,0.995c13.149,3.501,22.387,15.922,21.91,29.424
			c-0.494,13.971-10.329,25.704-23.754,28.338c-0.892,0.175-1.785,0.349-2.677,0.524c-2.16,0-4.32,0-6.48,0
			c-0.221-0.074-0.437-0.186-0.664-0.216C13.778,57.466,3.991,48.836,0.943,37.165C0.574,35.751,0.312,34.309,0,32.88
			c0-2.16,0-4.32,0-6.48c0.073-0.175,0.188-0.345,0.214-0.527C1.942,13.505,10.563,3.834,22.576,0.82
			C23.84,0.502,25.125,0.271,26.4,0C28.56,0,30.72,0,32.88,0z M29.575,47.799c10.013,0.031,18.196-8.09,18.223-18.084
			c0.028-10.005-8.055-18.152-18.088-18.231c-9.94-0.078-18.173,8.095-18.229,18.096C11.427,39.551,19.588,47.769,29.575,47.799z"/>
		<path fill="#FFFFFF" d="M26.4,0c-1.275,0.271-2.56,0.502-3.824,0.82C10.563,3.834,1.942,13.505,0.214,25.873
			C0.188,26.055,0.073,26.225,0,26.4C0,17.6,0,8.8,0,0C8.8,0,17.6,0,26.4,0z"/>
		<path fill="#FFFFFF" d="M0,32.88c0.312,1.429,0.574,2.871,0.943,4.285c3.048,11.671,12.834,20.302,24.793,21.899
			c0.227,0.03,0.443,0.142,0.664,0.216c-8.78,0-17.56,0-26.4,0C0,50.48,0,41.68,0,32.88z"/>
		<path fill="#FFFFFF" d="M283.44,25.2c-2.186,0.405-3.731-0.414-5.062-2.207c-1.423-1.917-3.201-3.566-4.728-5.411
			c-0.685-0.827-1.409-1.189-2.459-1.075c-0.666,0.072-1.346,0.014-2.155,0.014c0,2.896,0,5.71,0,8.601c-0.873,0-1.613,0-2.435,0
			c0-6.724,0-13.453,0-20.167c3.43,0,6.797-0.227,10.119,0.064c3.344,0.293,5.251,2.593,5.278,5.609
			c0.028,3.159-1.809,5.21-5.204,5.813c-0.272,0.048-0.545,0.094-1.068,0.183c2.649,2.863,5.181,5.6,7.714,8.337
			C283.44,25.04,283.44,25.12,283.44,25.2z M269.049,14.155c2.534,0,4.964,0.123,7.376-0.04c1.825-0.123,3.085-1.678,3.124-3.382
			c0.037-1.622-1.048-3.285-2.745-3.435c-2.55-0.225-5.135-0.059-7.755-0.059C269.049,9.469,269.049,11.77,269.049,14.155z"/>
		<path fill="#FFFFFF" d="M198.707,8.929c-0.78,2.46-1.466,4.606-2.142,6.754c-0.898,2.854-1.842,5.695-2.65,8.574
			c-0.275,0.979-0.838,0.98-1.59,0.949c-0.702-0.029-1.301,0.117-1.606-0.913c-1.917-6.457-3.936-12.885-5.915-19.304
			c0.123-0.085,0.18-0.157,0.241-0.16c2.242-0.132,2.238-0.13,2.89,2.012c1.348,4.427,2.7,8.852,4.053,13.278
			c0.092,0.302,0.204,0.598,0.391,1.145c0.942-2.984,1.818-5.739,2.681-8.499c0.678-2.17,1.41-4.328,1.981-6.527
			c0.307-1.185,0.855-1.69,2.063-1.445c0.228,0.046,0.473,0.007,0.802,0.007c1.695,5.424,3.38,10.819,5.165,16.533
			c0.722-2.336,1.356-4.364,1.975-6.397c0.861-2.824,1.78-5.633,2.533-8.486c0.341-1.294,0.873-1.956,2.261-1.655
			c0.229,0.05,0.473,0.031,0.856,0.053c-0.579,1.88-1.139,3.694-1.695,5.508c-1.403,4.578-2.829,9.15-4.183,13.742
			c-0.266,0.9-0.676,1.188-1.59,1.128c-0.829-0.054-1.421-0.018-1.735-1.09c-1.357-4.631-2.846-9.224-4.29-13.83
			C199.089,9.948,198.948,9.599,198.707,8.929z"/>
		<path fill="#FFFFFF" d="M218.499,38.788c0,5.141,0,10.282,0,15.497c-0.848,0-1.584,0-2.39,0c0-6.757,0-13.452,0-20.194
			c1.148-0.262,2.04-0.218,2.907,0.881c3.714,4.703,7.539,9.317,11.327,13.961c0.266,0.327,0.555,0.636,1.006,1.151
			c0-5.472,0-10.682,0-16.009c0.865,0,1.626,0,2.46,0c0,6.719,0,13.413,0,20.167c-1.23,0.293-2.151,0.125-3.024-0.963
			c-3.799-4.737-7.691-9.399-11.551-14.087c-0.144-0.174-0.306-0.334-0.459-0.5C218.683,38.724,218.591,38.756,218.499,38.788z"/>
		<path fill="#FFFFFF" d="M252.241,16.626c2.55,2.835,5.024,5.585,7.64,8.493c-1.62,0.069-2.974,0.434-4.153-1.089
			c-1.707-2.205-3.724-4.168-5.52-6.309c-0.762-0.908-1.563-1.37-2.751-1.215c-0.621,0.081-1.261,0.014-2.031,0.014
			c0,2.927,0,5.743,0,8.617c-0.846,0-1.55,0-2.341,0c0-6.734,0-13.459,0-20.151c3.452,0,6.854-0.232,10.21,0.066
			c3.256,0.289,5.127,2.613,5.144,5.596c0.018,3.126-1.786,5.164-5.11,5.774C253.022,16.48,252.715,16.538,252.241,16.626z
			 M245.48,7.2c0,2.269,0,4.597,0,6.928c2.573,0,5.082,0.147,7.563-0.05c1.771-0.141,2.903-1.718,2.909-3.417
			c0.005-1.71-1.101-3.261-2.905-3.41C250.566,7.047,248.056,7.2,245.48,7.2z"/>
		<path fill="#FFFFFF" d="M187.88,44.131c0.022-6.025,4.622-10.553,10.698-10.531c5.787,0.021,10.459,4.789,10.414,10.626
			c-0.046,5.945-4.699,10.556-10.628,10.534C192.415,54.738,187.858,50.118,187.88,44.131z M206.439,44.256
			c0.031-4.646-3.407-8.28-7.916-8.369c-4.448-0.088-8.131,3.582-8.163,8.135c-0.033,4.771,3.5,8.435,8.113,8.413
			C202.935,52.413,206.409,48.847,206.439,44.256z"/>
		<path fill="#FFFFFF" d="M76.359,4.65c3.482,0.204,6.919,0.059,10.213,0.678c5.067,0.952,7.927,5.027,7.745,10.183
			c-0.172,4.863-3.489,8.793-8.451,9.389c-3.1,0.372-6.281,0.069-9.506,0.069C76.359,18.412,76.359,11.716,76.359,4.65z
			 M78.791,6.835c0,5.547,0,10.798,0,16.163c1.579,0,3.089,0.028,4.598-0.012c0.715-0.019,1.437-0.121,2.137-0.271
			c3.806-0.818,6.192-3.652,6.272-7.41c0.086-4.026-2.029-7.012-5.961-7.847C83.572,6.976,81.193,7.029,78.791,6.835z"/>
		<path fill="#FFFFFF" d="M101.779,4.888c4.855,0,9.685,0,14.628,0c0,0.654,0,1.301,0,2.098c-4.048,0-8.099,0-12.218,0
			c0,2.329,0,4.513,0,6.859c3.771,0,7.541,0,11.379,0c0,0.783,0,1.408,0,2.178c-3.748,0-7.519,0-11.368,0c0,2.362,0,4.58,0,6.938
			c4.057,0,8.114,0,12.245,0c0,0.798,0,1.457,0,2.178c-4.876,0-9.7,0-14.666,0C101.779,18.423,101.779,11.68,101.779,4.888z"/>
		<path fill="#FFFFFF" d="M114.677,54.201c-2.27,0.457-2.558,0.459-3.184-1.599c-0.637-2.094-1.767-2.708-3.883-2.533
			c-2.581,0.213-5.193,0.081-7.79,0.032c-0.764-0.014-1.178,0.23-1.412,0.944c-0.186,0.566-0.47,1.1-0.706,1.65
			c-0.812,1.9-0.926,1.956-3.272,1.495c0.521-1.176,1.028-2.33,1.543-3.48c2.38-5.317,4.779-10.625,7.122-15.957
			c0.307-0.699,0.723-0.85,1.376-0.799c0.608,0.048,1.222-0.147,1.587,0.678c2.837,6.424,5.72,12.827,8.584,19.239
			C114.686,53.969,114.667,54.093,114.677,54.201z M109.371,47.817c-1.613-3.637-3.133-7.063-4.76-10.732
			c-1.655,3.722-3.188,7.171-4.771,10.732C103.089,47.817,106.105,47.817,109.371,47.817z"/>
		<path fill="#FFFFFF" d="M173.566,25.125c-2.547,0.211-2.682,0.256-3.454-2.025c-0.593-1.754-1.48-2.367-3.352-2.23
			c-2.704,0.198-5.434,0.08-8.152,0.032c-0.767-0.014-1.185,0.233-1.402,0.952c-0.138,0.456-0.362,0.885-0.549,1.326
			c-0.906,2.132-0.906,2.132-3.447,1.954c0.148-0.386,0.267-0.74,0.418-1.08c2.72-6.084,5.457-12.161,8.151-18.256
			c0.323-0.73,0.704-1.032,1.519-0.982c0.756,0.046,1.276,0.08,1.657,0.951c2.705,6.177,5.493,12.319,8.252,18.473
			C173.319,24.489,173.413,24.747,173.566,25.125z M158.602,18.673c3.223,0,6.282,0,9.538,0c-1.585-3.577-3.12-7.041-4.752-10.725
			C161.741,11.638,160.206,15.078,158.602,18.673z"/>
		<path fill="#FFFFFF" d="M236.862,25.06c-0.092,0.059-0.12,0.093-0.152,0.095c-2.315,0.207-2.315,0.207-3.209-1.9
			c-0.99-2.335-0.99-2.335-3.579-2.335c-2.639,0-5.278,0.025-7.916-0.016c-0.738-0.011-1.208,0.158-1.43,0.913
			c-0.157,0.532-0.426,1.031-0.646,1.545c-0.884,2.065-0.884,2.065-3.386,1.714c0.952-2.133,1.89-4.236,2.83-6.339
			c1.922-4.299,3.869-8.588,5.746-12.907c0.349-0.804,0.801-1.012,1.622-1.02c0.837-0.008,1.254,0.249,1.601,1.036
			c2.722,6.171,5.499,12.317,8.255,18.473C236.707,24.563,236.778,24.824,236.862,25.06z M231.529,18.72
			c-1.621-3.65-3.156-7.107-4.785-10.775c-1.658,3.728-3.199,7.194-4.791,10.775c2.924,0,5.636,0,8.348,0
			C230.618,18.72,230.935,18.72,231.529,18.72z"/>
		<path fill="#FFFFFF" d="M78.767,54.29c-0.883,0-1.622,0-2.424,0c0-6.759,0-13.455,0-20.163c0.122-0.052,0.228-0.137,0.333-0.137
			c3.194,0.013,6.393-0.078,9.58,0.086c3.588,0.184,5.935,2.7,5.961,6.089c0.028,3.613-2.218,6.154-5.89,6.391
			c-2.463,0.159-4.944,0.03-7.559,0.03C78.767,49.241,78.767,51.731,78.767,54.29z M78.757,44.389c2.499,0,4.895,0.11,7.275-0.032
			c2.171-0.129,3.627-1.692,3.758-3.671c0.144-2.181-0.97-3.995-3.171-4.241c-2.579-0.288-5.214-0.067-7.862-0.067
			C78.757,39.004,78.757,41.63,78.757,44.389z"/>
		<path fill="#FFFFFF" d="M117.046,33.958c0.657,0,1.135,0.054,1.596-0.012c0.822-0.116,1.195,0.259,1.506,0.987
			c2.097,4.917,4.236,9.816,6.364,14.72c0.158,0.364,0.336,0.718,0.586,1.249c1.17-2.673,2.282-5.205,3.386-7.742
			c1.067-2.451,2.125-4.905,3.188-7.358c0.916-2.115,0.917-2.114,3.422-1.689c-0.962,2.207-1.912,4.385-2.861,6.562
			c-1.849,4.242-3.73,8.471-5.518,12.739c-0.361,0.863-0.87,0.956-1.646,0.967c-0.8,0.011-1.261-0.164-1.618-1
			c-2.617-6.126-5.307-12.221-7.972-18.327C117.352,34.765,117.247,34.468,117.046,33.958z"/>
		<path fill="#FFFFFF" d="M134.769,4.907c0.754,0,1.458,0,2.365,0c0,5.984,0,11.975,0,18.078c3.975,0,7.751,0,11.596,0
			c0,0.769,0,1.424,0,2.148c-4.64,0-9.255,0-13.96,0C134.769,18.412,134.769,11.693,134.769,4.907z"/>
		<path fill="#FFFFFF" d="M157.694,34.031c0.794,0,1.535,0,2.361,0c0,6.005,0,11.951,0,18.049c3.89,0,7.7,0,11.586,0
			c0,0.81,0,1.467,0,2.203c-4.663,0-9.278,0-13.947,0C157.694,47.514,157.694,40.809,157.694,34.031z"/>
		<path fill="#FFFFFF" d="M178.154,54.275c0-6.772,0-13.438,0-20.21c0.761,0,1.496,0,2.34,0c0,6.686,0,13.404,0,20.21
			C179.754,54.275,179.02,54.275,178.154,54.275z"/>
		<path fill="#FFFFFF" d="M147.032,54.286c-0.735,0-1.473,0-2.283,0c0-6.741,0-13.432,0-20.225c0.732,0,1.462,0,2.283,0
			C147.032,40.77,147.032,47.49,147.032,54.286z"/>
		<path fill="#FFFFFF" d="M29.575,47.799c-9.988-0.03-18.149-8.248-18.093-18.219c0.056-10.001,8.289-18.174,18.229-18.096
			c10.032,0.079,18.115,8.226,18.088,18.231C47.771,39.709,39.588,47.83,29.575,47.799z"/>
		<path fill="#FFFFFF" d="M269.049,14.155c0-2.384,0-4.686,0-6.916c2.62,0,5.205-0.167,7.755,0.059
			c1.697,0.15,2.782,1.812,2.745,3.435c-0.039,1.704-1.299,3.259-3.124,3.382C274.013,14.277,271.583,14.155,269.049,14.155z"/>
		<path fill="#FFFFFF" d="M245.48,7.2c2.576,0,5.086-0.153,7.566,0.051c1.804,0.149,2.91,1.7,2.905,3.41
			c-0.005,1.699-1.137,3.276-2.909,3.417c-2.481,0.197-4.989,0.05-7.563,0.05C245.48,11.797,245.48,9.469,245.48,7.2z"/>
		<path fill="#FFFFFF" d="M206.439,44.256c-0.03,4.591-3.504,8.157-7.966,8.179c-4.613,0.022-8.146-3.641-8.113-8.413
			c0.032-4.553,3.714-8.224,8.163-8.135C203.033,35.976,206.47,39.61,206.439,44.256z"/>
		<path fill="#FFFFFF" d="M78.791,6.835c2.402,0.194,4.78,0.142,7.046,0.623c3.932,0.835,6.047,3.821,5.961,7.847
			c-0.08,3.758-2.466,6.592-6.272,7.41c-0.7,0.15-1.422,0.252-2.137,0.271c-1.509,0.041-3.019,0.012-4.598,0.012
			C78.791,17.633,78.791,12.382,78.791,6.835z"/>
		<path fill="#FFFFFF" d="M109.371,47.817c-3.266,0-6.282,0-9.531,0c1.583-3.561,3.117-7.01,4.771-10.732
			C106.239,40.754,107.758,44.179,109.371,47.817z"/>
		<path fill="#FFFFFF" d="M158.602,18.673c1.604-3.595,3.139-7.035,4.786-10.725c1.632,3.684,3.167,7.148,4.752,10.725
			C164.883,18.673,161.824,18.673,158.602,18.673z"/>
		<path fill="#FFFFFF" d="M231.529,18.72c-0.594,0-0.911,0-1.228,0c-2.712,0-5.424,0-8.348,0c1.592-3.581,3.133-7.046,4.791-10.775
			C228.372,11.613,229.908,15.07,231.529,18.72z"/>
		<path fill="#FFFFFF" d="M78.757,44.389c0-2.759,0-5.385,0-8.012c2.648,0,5.283-0.22,7.862,0.067
			c2.202,0.246,3.315,2.06,3.171,4.241c-0.131,1.979-1.587,3.542-3.758,3.671C83.652,44.499,81.256,44.389,78.757,44.389z"/>
	</g>
</g>
</svg>
